<?xml version="1.0" standalone="no"?><svg xmlns="http://www.w3.org/2000/svg" viewBox="0 0 1440 320" style="user-select: auto;"><path fill="#3f3d56" fill-opacity="1" d="M0,160L48,170.7C96,181,192,203,288,197.3C384,192,480,160,576,133.3C672,107,768,85,864,69.3C960,53,1056,43,1152,48C1248,53,1344,75,1392,85.3L1440,96L1440,320L1392,320C1344,320,1248,320,1152,320C1056,320,960,320,864,320C768,320,672,320,576,320C480,320,384,320,288,320C192,320,96,320,48,320L0,320Z" style="user-select: auto;"></path></svg>