<?xml version="1.0" standalone="no"?><svg xmlns="http://www.w3.org/2000/svg" viewBox="0 0 1440 320" style="user-select: auto;"><path fill="white" fill-opacity="1" d="M0,192L48,202.7C96,213,192,235,288,240C384,245,480,235,576,208C672,181,768,139,864,133.3C960,128,1056,160,1152,160C1248,160,1344,128,1392,112L1440,96L1440,320L1392,320C1344,320,1248,320,1152,320C1056,320,960,320,864,320C768,320,672,320,576,320C480,320,384,320,288,320C192,320,96,320,48,320L0,320Z" style="user-select: auto;"></path></svg>