<?xml version="1.0" standalone="no"?><svg xmlns="http://www.w3.org/2000/svg" viewBox="0 0 1440 320" style="user-select: auto;"><path fill="white" fill-opacity="1" d="M0,320L48,304C96,288,192,256,288,224C384,192,480,160,576,170.7C672,181,768,235,864,234.7C960,235,1056,181,1152,149.3C1248,117,1344,107,1392,101.3L1440,96L1440,320L1392,320C1344,320,1248,320,1152,320C1056,320,960,320,864,320C768,320,672,320,576,320C480,320,384,320,288,320C192,320,96,320,48,320L0,320Z" style="user-select: auto;"></path></svg>